<?xml version="1.0" encoding="UTF-8"?>
<svg width="1723" height="592.18" version="1.1" viewBox="0 0 1723 592.18" xml:space="preserve" xmlns="http://www.w3.org/2000/svg" xmlns:cc="http://creativecommons.org/ns#" xmlns:dc="http://purl.org/dc/elements/1.1/" xmlns:rdf="http://www.w3.org/1999/02/22-rdf-syntax-ns#"><metadata><rdf:RDF><cc:Work rdf:about=""><dc:format>image/svg+xml</dc:format><dc:type rdf:resource="http://purl.org/dc/dcmitype/StillImage"/><dc:title/></cc:Work></rdf:RDF></metadata>
<style type="text/css">
	.st0{fill:#3E255E;}
	.st1{fill:#E94F30;}
	.st2{fill:none;}
</style>
<g transform="translate(-138.98,-703.91)">
	
		<polygon class="st2" points="1166.8 1e3 1144.8 1e3 1033.8 1e3 1033.8 1133 1166.8 1133"/>
		<path class="st1" d="m1765.5 866.96c36.74 0 66.52-29.78 66.52-66.52s-29.78-66.52-66.52-66.52-66.52 29.78-66.52 66.52c0 36.73 29.78 66.52 66.52 66.52z"/>
		
			<path class="st0" d="m1699 1e3v133.04h-199.56v-133.04h133.04v-133.04h-133.04v-133.05h-133.04v133.04h-332.62c-73.48 0-133.04 59.57-133.04 133.04v133.04h-199.57v-133.03h133.05v-133.04h-133.05v-133.05h-133.04v399.13c0 73.48 59.57 133.04 133.04 133.04h465.64c73.48 0 133.04-59.57 133.04-133.04v-133.04h66.52v133.04c0 73.48 59.57 133.04 133.04 133.04h199.56c73.48 0 133.04-59.57 133.04-133.04v-133.04zm-532.18 133.04h-133.04v-133.04h133.04z"/>
			<polygon class="st0" points="168.98 1266.1 235.5 1266.1 368.54 1266.1 501.59 1266.1 501.59 1133 368.54 1133 235.5 1133 168.98 1133"/>
		
	
</g>
</svg>
